<mxfile host="app.diagrams.net" agent="Mozilla/5.0 (Windows NT 10.0; Win64; x64) AppleWebKit/537.36 (KHTML, like Gecko) Chrome/131.0.0.0 Safari/537.36" version="25.0.3">
  <diagram name="Trang-1" id="DvFKIOrZeuAXpc2KsNQH">
    <mxGraphModel dx="875" dy="474" grid="1" gridSize="10" guides="1" tooltips="1" connect="1" arrows="1" fold="1" page="1" pageScale="1" pageWidth="827" pageHeight="1169" math="0" shadow="0">
      <root>
        <mxCell id="0" />
        <mxCell id="1" parent="0" />
        <mxCell id="DvsacSXVs-7C_EO0M711-4" style="edgeStyle=orthogonalEdgeStyle;rounded=0;orthogonalLoop=1;jettySize=auto;html=1;entryX=0.5;entryY=0;entryDx=0;entryDy=0;" edge="1" parent="1" source="DvsacSXVs-7C_EO0M711-1" target="DvsacSXVs-7C_EO0M711-3">
          <mxGeometry relative="1" as="geometry" />
        </mxCell>
        <mxCell id="DvsacSXVs-7C_EO0M711-5" value="" style="group" vertex="1" connectable="0" parent="1">
          <mxGeometry x="200" y="80" width="240" height="80" as="geometry" />
        </mxCell>
        <mxCell id="DvsacSXVs-7C_EO0M711-1" value="&lt;font style=&quot;font-size: 30px;&quot;&gt;int k, int x&lt;/font&gt;" style="rounded=0;whiteSpace=wrap;html=1;" vertex="1" parent="DvsacSXVs-7C_EO0M711-5">
          <mxGeometry width="240" height="80" as="geometry" />
        </mxCell>
        <mxCell id="DvsacSXVs-7C_EO0M711-2" value="1" style="ellipse;whiteSpace=wrap;html=1;aspect=fixed;" vertex="1" parent="DvsacSXVs-7C_EO0M711-5">
          <mxGeometry x="210" width="30" height="30" as="geometry" />
        </mxCell>
        <mxCell id="DvsacSXVs-7C_EO0M711-7" value="" style="group" vertex="1" connectable="0" parent="1">
          <mxGeometry x="200" y="200" width="240" height="80" as="geometry" />
        </mxCell>
        <mxCell id="DvsacSXVs-7C_EO0M711-3" value="&lt;font style=&quot;font-size: 30px;&quot;&gt;int t = 0&lt;/font&gt;" style="rounded=0;whiteSpace=wrap;html=1;" vertex="1" parent="DvsacSXVs-7C_EO0M711-7">
          <mxGeometry width="240" height="80" as="geometry" />
        </mxCell>
        <mxCell id="DvsacSXVs-7C_EO0M711-6" value="2" style="ellipse;whiteSpace=wrap;html=1;aspect=fixed;" vertex="1" parent="DvsacSXVs-7C_EO0M711-7">
          <mxGeometry x="210" width="30" height="30" as="geometry" />
        </mxCell>
        <mxCell id="DvsacSXVs-7C_EO0M711-8" value="&lt;font style=&quot;font-size: 30px;&quot;&gt;If(k &amp;gt;= 8)&lt;/font&gt;" style="rhombus;whiteSpace=wrap;html=1;" vertex="1" parent="1">
          <mxGeometry x="200" y="320" width="240" height="120" as="geometry" />
        </mxCell>
        <mxCell id="DvsacSXVs-7C_EO0M711-10" style="edgeStyle=orthogonalEdgeStyle;rounded=0;orthogonalLoop=1;jettySize=auto;html=1;exitX=0.5;exitY=1;exitDx=0;exitDy=0;entryX=0.5;entryY=0;entryDx=0;entryDy=0;" edge="1" parent="1" source="DvsacSXVs-7C_EO0M711-3" target="DvsacSXVs-7C_EO0M711-8">
          <mxGeometry relative="1" as="geometry" />
        </mxCell>
        <mxCell id="DvsacSXVs-7C_EO0M711-14" value="3" style="ellipse;whiteSpace=wrap;html=1;aspect=fixed;" vertex="1" parent="1">
          <mxGeometry x="410" y="320" width="30" height="30" as="geometry" />
        </mxCell>
      </root>
    </mxGraphModel>
  </diagram>
</mxfile>
